<?xml version="1.0" encoding="UTF-8"?>
<svg version="1.1" viewBox="0 0 2000 2000" width="500" height="500" xmlns="http://www.w3.org/2000/svg">
<path transform="translate(938,494)" d="m0 0h53l5 8 6 14 8 11 11 14 12 14 21 21 11 9 8 7 11 8 17 13 14 10 11 6 20 14 23 15 15 9 38 28 11 9 13 13 7 8 8 8 9 13 8 15 6 10 9 19 7 20 4 18 2 31v13l-2 28-4 21-11 33-12 25-6 16-11 17-14 21-6 6v4l4 2 9 10 9 11 7 8 13 25 8 14 9 24 4 15 2 15 1 18v20l-2 27-5 23-8 24-9 22-8 15-5 13-7 11-7 10-11 16-11 15-12 14-12 12-8 7-8 8-9 6v-3l9-12 9-11 4-10 10-16 8-13 11-22 12-38 5-26 1-10v-18l-3-18-6-20-10-22-7-11-5-6-8-7-9-10-7-8-8-7-13-8-13-11-24-15-28-15-17-11-19-10-12-6-20-12-13-10-10-6-13-9-8-8-6-10-2-1v412l-2 18-7 24-8 17-9 16-5 10-11 12-9 11-14 14-28 21-10 7-12 6-13 5-13 6-30 10-26 5-8 1h-35l-21-3-26-8-14-7-10-6-12-6-10-10-9-11-10-12-7-12-6-17-2-15v-34l3-21 7-19 8-15 16-24 4-7 7-6 7-8 10-10 8-7 6-5 11-7 15-10 13-8 13-6 16-5 35-9 18-3 23-2h22l24 2 28 6 8 3h3l1-181 1-188 1-70 2-205 2-162zm54 184v146l6 16 5 10 8 11 12 14 9 11 8 9 8 7 10 9 8 7 15 12 14 9 15 12 15 10 14 8 28 19 11 8 15 8 25 20 7 5 3-1 8-18 12-38 5-26 1-13v-10l-2-17-4-16-10-26-8-13-10-13-25-25-14-11-14-10-25-16-15-10-22-11-41-24-18-9-14-10-13-10-15-11-5-5-5-8z" fill="#FEFEFE"/>
<path transform="translate(749,862)" d="m0 0h28l16 3 14 8 9 7 5 5 8 9 6 10 6 16 2 7 1 8v14l-2 12-8 19-8 15-6 5-16 11-15 8-18 4h-16l-14-3-12-5-11-7-17-13-6-9-9-22-2-7-1-8v-13l3-16 7-19 7-10 9-10 12-9 12-7z" fill="#FEFEFE"/>
<path transform="translate(751,454)" d="m0 0h25l16 3 16 8 10 8 8 8 9 15 5 12 3 11 1 8v14l-2 12-9 21-8 14-15 11-17 10-13 4-12 2h-9l-13-2-13-4-16-10-14-10-7-9-10-24-3-14v-15l3-16 6-16 6-10 9-10 9-8 13-8 9-3z" fill="#FEFEFE"/>
<path transform="translate(1087,1151)" d="m0 0h29l14 4 11 6 15 10 8 7 6 9 7 16 4 12 1 5v21l-5 19-8 17-11 13-11 9-14 7-22 5h-18l-15-3-13-4-11-7-10-9-8-9-9-17-5-17-1-17 2-16 5-13 8-16 6-8 9-7 20-12 11-4z" fill="#FEFEFE"/>
<path transform="translate(941,417)" d="m0 0h57l1 1 2 16 7 14 10 13 13 15 5 6 8 7 11 11 22 18 14 11 19 14 18 13 10 7 16 10 13 9 15 9 10 7 15 9 16 9 13 11 10 8 16 16 9 11 11 15 11 18 8 16 5 17 4 26 1 9v18l-2 2h-5l-2-4-2-25-4-19-6-17-6-14-12-21-10-14-11-12-18-18-11-9-52-32-48-32-20-15-17-12-16-13-11-9-14-12-17-16-12-13-11-14-8-13-6-15-1-7h-48z" fill="#FEFEFE"/>
<path transform="translate(994,382)" d="m0 0 4 1 1 1 2 10 8 16 7 9 14 15 9 11 8 8 10 8 10 9 14 11 15 12 20 14 18 13 16 10 11 8 25 16 20 12 17 11 14 10 12 9 13 12 8 9 13 19 12 23 2 7-4 3-4 1-4-4-8-17-11-19-14-15-10-10-18-13-18-12-26-16-22-14-18-12-19-13-18-13-11-8-14-11-16-13-14-12-13-12-17-17-7-8-11-13-8-19-2-6-49-1-1-3v-5l1-1z" fill="#FEFEFE"/>
<path transform="translate(827,1218)" d="m0 0h43l33 4 16 3 3 3-1 8-3 1-35-5-25-2h-21l-29 3-34 6-13 4-23 11-11 7-14 10-9 6-8 7-8 10-16 17-9 13-6 12-9 15-6 8-5-1-3-3 1-6 7-12 16-26 10-13 12-14 12-12 14-11 14-10 15-9 12-5 28-10 25-6z" fill="#FEFEFE"/>
<path transform="translate(831,1169)" d="m0 0h26l33 2 25 3 3 3v7l-5 2-28-4-19-2h-43l-23 3-22 5-18 6-28 12-16 10-14 11-13 12-9 9-9 11-11 16-15 26-5 7-9-1-1-4 10-19 12-17 10-15 8-11 15-14 13-13 10-7 21-12 15-8 23-9 18-5 13-2z" fill="#FEFEFE"/>
<path transform="translate(1009,779)" d="m0 0 5 2 11 14 11 12 23 23 17 13 16 13 16 11 23 16 18 12 21 13 24 15 41 23 5 4v9l-1 2-5-1-23-13-10-7-11-7-14-7-10-7-18-11-23-15-16-11-14-10-18-13-11-9-10-8-10-9-8-7-16-16-9-11-10-11 1-4 3-1z" fill="#FEFEFE"/>
<path transform="translate(1007,730)" d="m0 0 5 1 10 13 8 11 10 10 8 7 15 14 18 13 11 9 14 10 16 11 18 12 11 7 12 8 14 8 23 14 19 12 17 9 2 2v7l-1 2-6-1-19-10-27-16-26-16-16-10-15-10-31-21-21-16-12-9-16-13-13-12-25-25-9-13 1-4z" fill="#FEFEFE"/>
<path transform="translate(1284,998)" d="m0 0h6l6 4 6 7 5 11 8 25 4 27v43l-4 4-7-2-1-2v-26l-1-28-3-21-5-12-7-13-9-10-1-5z" fill="#FEFEFE"/>
</svg>
